<?xml version="1.0" encoding="UTF-8"?> <svg xmlns="http://www.w3.org/2000/svg" width="789" height="152" viewBox="0 0 789 152" fill="none"><g clip-path="url(#clip0_137_176)"><path d="M131.928 132.599L99.6798 100.611C91.8629 107.717 84.0373 109.976 73.2794 109.976C49.7684 109.976 30.7119 91.0728 30.7119 67.7515C30.7119 44.4301 49.7684 25.5274 73.2794 25.5274C101.116 25.5274 121.256 51.5186 114.583 78.0217L99.6798 63.239L104.429 58.4097L80.6337 55.4913L82.0009 80.7858L87.2837 75.469L124.795 112.677C136.748 100.164 141.809 85.4003 141.809 67.7515C141.809 30.2104 111.126 -0.225098 73.2794 -0.225098C35.433 -0.225098 4.75 30.2104 4.75 67.7515C4.75 105.293 35.433 135.728 73.2794 135.728C84.2179 135.728 94.5545 133.186 103.73 128.665L120.121 144.924L114.583 150.759L139.426 152.226L136.896 127.198L134.276 130.883L131.928 132.599Z" fill="url(#paint0_linear_137_176)"></path><path d="M184.643 116.487C195.677 116.487 202.466 110.404 205.861 105.312L206.852 114.79H222.695V43.7785H205.437V84.8008C205.437 92.8638 201.618 101.634 189.452 101.634C179.409 101.634 175.448 94.7028 175.448 84.8008V43.7785H158.332V86.9226C158.332 103.049 165.405 116.487 184.643 116.487Z" fill="#111827"></path><path d="M261.29 116.487C272.748 116.487 279.397 110.404 282.933 105.029L284.489 114.79H299.2V71.221C299.2 51.9829 288.733 42.081 268.646 42.081C248.135 42.081 241.628 54.812 241.628 54.812V64.1482H253.793C253.793 64.1482 257.471 56.5095 268.222 56.5095C277.841 56.5095 281.943 61.319 281.943 70.7966V74.6159C281.943 74.6159 275.294 72.9185 267.09 72.9185C246.437 72.9185 237.525 81.8302 237.525 94.4198C237.525 106.585 245.447 116.487 261.29 116.487ZM265.534 102.907C258.461 102.907 254.5 100.078 254.5 93.5711C254.5 88.7616 257.471 84.235 267.656 84.235C276.002 84.235 281.943 85.9325 281.943 85.9325V89.3274C281.943 95.2686 276.143 102.907 265.534 102.907Z" fill="#111827"></path><path d="M318.316 114.79H335.432V73.7672C335.432 65.7042 339.393 56.9339 351.558 56.9339C361.743 56.9339 365.704 63.8653 365.704 73.7672V114.79H382.961V71.6454C382.961 55.5193 375.889 42.081 356.651 42.081C345.193 42.081 338.403 48.1636 335.008 53.256L334.018 43.7785H318.316V114.79Z" fill="#111827"></path><path d="M432.035 116.487C444.483 116.487 450.424 110.546 453.112 105.312V95.8344H441.229C441.229 96.5417 440.381 102.058 432.742 102.058C425.386 102.058 422.699 97.3904 422.699 89.186V58.0655H450.707V43.7785H422.699V25.9549H406.997L406.007 43.7785H394.407V58.0655H405.582V90.3176C405.582 107.009 414.777 116.487 432.035 116.487Z" fill="#111827"></path><path d="M490.625 116.487C501.659 116.487 508.449 110.404 511.844 105.312L512.834 114.79H528.677V43.7785H511.419V84.8008C511.419 92.8638 507.6 101.634 495.435 101.634C485.391 101.634 481.431 94.7028 481.431 84.8008V43.7785H464.314V86.9226C464.314 103.049 471.387 116.487 490.625 116.487Z" fill="#111827"></path><path d="M548.459 114.79H565.575V73.4843C565.575 65.4213 568.828 56.9339 579.013 56.9339C587.501 56.9339 590.896 63.0165 590.896 72.0697V114.79H607.729V71.6454C607.729 64.8555 611.124 56.9339 621.026 56.9339C629.655 56.9339 632.908 63.2994 632.908 72.3526V114.79H650.166V70.7966C650.166 55.095 643.376 42.081 625.835 42.081C614.377 42.081 607.87 48.3051 604.334 53.9633C600.939 46.8905 594.432 42.081 583.964 42.081C574.204 42.081 568.263 47.7392 565.151 52.8317L564.16 43.7785H548.459V114.79Z" fill="#111827"></path><path d="M675.842 114.79L685.886 88.903H729.454L739.498 114.79H754.634V103.473L716.582 8.69727H699.607L661.414 104.888V114.79H675.842ZM723.796 73.4843H691.544L707.67 31.4717L723.796 73.4843Z" fill="#111827"></path><path d="M769.685 114.79H788.499V8.69727H769.685V114.79Z" fill="#111827"></path></g><defs><linearGradient id="paint0_linear_137_176" x1="111.5" y1="-14.5001" x2="30.368" y2="-19.3664" gradientUnits="userSpaceOnUse"><stop stop-color="#00CC8F"></stop><stop offset="0.322917" stop-color="#14B8A6"></stop><stop offset="1" stop-color="#1070FF"></stop></linearGradient><clipPath id="clip0_137_176"><rect width="788.5" height="152" fill="white"></rect></clipPath></defs></svg> 